<svg width="574" height="448" viewBox="0 0 574 448" fill="none" xmlns="http://www.w3.org/2000/svg">
<g clip-path="url(#clip0_17016_8286)">
<rect width="574" height="448" fill="url(#paint0_radial_17016_8286)"/>
<rect width="240.91" height="173.451" transform="matrix(0.35999 -0.932956 1 3.29636e-08 54 449.509)" fill="url(#paint1_linear_17016_8286)"/>
<rect width="240.91" height="173.451" transform="matrix(0.35999 -0.932956 1 3.29636e-08 184 449.511)" fill="url(#paint2_linear_17016_8286)"/>
<rect width="240.91" height="173.451" transform="matrix(0.35999 0.932956 1 -3.29636e-08 54 0)" fill="url(#paint3_linear_17016_8286)"/>
<rect width="240.91" height="173.451" transform="matrix(0.35999 0.932956 1 -3.29636e-08 184.088 0.00305176)" fill="url(#paint4_linear_17016_8286)"/>
<rect width="240.91" height="173.451" transform="matrix(0.35999 -0.932956 1 3.29636e-08 314.179 449.511)" fill="url(#paint5_linear_17016_8286)"/>
<rect width="240.91" height="173.451" transform="matrix(0.35999 0.932956 1 -3.29636e-08 314.179 0.00256348)" fill="url(#paint6_linear_17016_8286)"/>
</g>
<defs>
<radialGradient id="paint0_radial_17016_8286" cx="0" cy="0" r="1" gradientUnits="userSpaceOnUse" gradientTransform="translate(574 -2.66774e-05) rotate(145.36) scale(627.175 544.003)">
<stop stop-color="#C9ADFF"/>
<stop offset="0.0001" stop-color="#E5E5E5"/>
<stop offset="0.9999" stop-color="#F7F7F8" stop-opacity="0.01"/>
<stop offset="1" stop-color="#F2F5F8" stop-opacity="0.0473288"/>
</radialGradient>
<linearGradient id="paint1_linear_17016_8286" x1="120.455" y1="0" x2="120.455" y2="173.451" gradientUnits="userSpaceOnUse">
<stop stop-color="white"/>
<stop offset="1" stop-color="white" stop-opacity="0"/>
</linearGradient>
<linearGradient id="paint2_linear_17016_8286" x1="120.455" y1="0" x2="120.455" y2="173.451" gradientUnits="userSpaceOnUse">
<stop offset="0.296875" stop-color="white"/>
<stop offset="0.671875" stop-color="white" stop-opacity="0"/>
</linearGradient>
<linearGradient id="paint3_linear_17016_8286" x1="120.455" y1="0" x2="120.455" y2="173.451" gradientUnits="userSpaceOnUse">
<stop offset="0.296875" stop-color="white"/>
<stop offset="0.671875" stop-color="white" stop-opacity="0"/>
</linearGradient>
<linearGradient id="paint4_linear_17016_8286" x1="120.455" y1="0" x2="120.455" y2="173.451" gradientUnits="userSpaceOnUse">
<stop stop-color="white"/>
<stop offset="1" stop-color="white" stop-opacity="0"/>
</linearGradient>
<linearGradient id="paint5_linear_17016_8286" x1="120.455" y1="0" x2="120.455" y2="173.451" gradientUnits="userSpaceOnUse">
<stop stop-color="white"/>
<stop offset="1" stop-color="white" stop-opacity="0"/>
</linearGradient>
<linearGradient id="paint6_linear_17016_8286" x1="120.455" y1="0" x2="120.455" y2="173.451" gradientUnits="userSpaceOnUse">
<stop offset="0.296875" stop-color="white"/>
<stop offset="0.671875" stop-color="white" stop-opacity="0"/>
</linearGradient>
<clipPath id="clip0_17016_8286">
<rect width="574" height="448" fill="white"/>
</clipPath>
</defs>
</svg>
