<svg width="40" height="40" viewBox="0 0 40 40" fill="none" xmlns="http://www.w3.org/2000/svg">
<path d="M29.0015 0L32.8537 2.23867L32.8713 8.42914H32.8713V27.3718L10.981 40L7.12877 37.7613V18.8187V12.6282L29.0015 0Z" fill="url(#paint0_linear_3700_14435)"/>
<path d="M10.981 21.0573L7.12877 18.8187V37.7613L10.981 40V21.0573Z" fill="url(#paint1_linear_3700_14435)"/>
<path d="M29.0014 0L32.8536 2.23867L32.8711 8.42914L10.9809 21.0573L7.12866 18.8187V12.6282L29.0014 0Z" fill="#232730"/>
<path fill-rule="evenodd" clip-rule="evenodd" d="M16.6153 13.0528L17.2251 13.4072C16.9257 13.2332 16.511 13.2577 16.0534 13.5219L15.4435 13.1675C15.9012 12.9034 16.3158 12.8787 16.6153 13.0528ZM14.892 17.4213L14.2824 17.067C13.9868 16.8951 13.8034 16.5298 13.802 16.0106C13.7991 14.9656 14.534 13.6926 15.4434 13.1675L16.0533 13.522C15.1439 14.047 14.409 15.32 14.4119 16.3651C14.4134 16.8842 14.5966 17.2495 14.892 17.4213Z" fill="url(#paint2_linear_3700_14435)"/>
<path d="M16.0532 13.522C15.1437 14.047 14.4088 15.3201 14.4117 16.3651C14.4147 17.4103 15.1544 17.8316 16.0639 17.3066C16.9734 16.7816 17.7083 15.5087 17.7053 14.4635C17.7023 13.4184 16.9627 12.9969 16.0532 13.522Z" fill="#232730"/>
<path d="M22.3479 16.2259C21.4384 16.7509 20.7035 18.024 20.7064 19.069C20.7094 20.1142 21.449 20.5356 22.3586 20.0106C23.268 19.4855 24.003 18.2126 24 17.1674C23.997 16.1224 23.2573 15.7008 22.3479 16.2259Z" fill="#232730"/>
<path d="M15.3479 20.2259C14.4384 20.7509 13.7035 22.024 13.7064 23.069C13.7094 24.1142 14.449 24.5356 15.3586 24.0106C16.268 23.4855 17.003 22.2126 17 21.1674C16.997 20.1224 16.2573 19.7008 15.3479 20.2259Z" fill="#232730"/>
<path d="M22.3479 22.2259C21.4384 22.7509 20.7035 24.024 20.7064 25.069C20.7094 26.1142 21.449 26.5356 22.3586 26.0106C23.268 25.4855 24.003 24.2126 24 23.1674C23.997 22.1224 23.2573 21.7008 22.3479 22.2259Z" fill="#232730"/>
<path d="M15.3479 26.2259C14.4384 26.7509 13.7035 28.024 13.7064 29.069C13.7094 30.1142 14.449 30.5356 15.3586 30.0106C16.268 29.4855 17.003 28.2126 17 27.1674C16.997 26.1224 16.2573 25.7008 15.3479 26.2259Z" fill="#232730"/>
<path d="M28.953 12.2259C28.0436 12.7509 27.3086 14.024 27.3115 15.069C27.3145 16.1142 28.0542 16.5356 28.9637 16.0106C29.8732 15.4855 30.6081 14.2126 30.6052 13.1674C30.6023 12.1224 29.8625 11.7008 28.953 12.2259Z" fill="#232730"/>
<path d="M28.953 6.1175C28.0436 6.64258 27.3086 7.91563 27.3115 8.96062C27.3145 10.0059 28.0542 10.4272 28.9637 9.90219C29.8732 9.37711 30.6081 8.10422 30.6052 7.05906C30.6023 6.01399 29.8625 5.59242 28.953 6.1175Z" fill="#232730"/>
<path fill-rule="evenodd" clip-rule="evenodd" d="M29.5148 5.64829L30.1248 6.00275C29.8254 5.82876 29.4107 5.85322 28.953 6.11744L28.343 5.76298C28.8007 5.49884 29.2154 5.47423 29.5148 5.64829ZM27.7915 10.0167L27.1819 9.66242C26.8863 9.49063 26.703 9.12531 26.7016 8.60609C26.6986 7.56109 27.4335 6.28805 28.343 5.76297L28.9529 6.11742C28.0434 6.6425 27.3084 7.91547 27.3114 8.96055C27.3129 9.47968 27.496 9.84492 27.7915 10.0167Z" fill="url(#paint3_linear_3700_14435)"/>
<path d="M28.953 18.2259C28.0436 18.7509 27.3086 20.024 27.3115 21.069C27.3145 22.1142 28.0542 22.5356 28.9637 22.0106C29.8732 21.4855 30.6081 20.2126 30.6052 19.1674C30.6023 18.1224 29.8625 17.7008 28.953 18.2259Z" fill="#232730"/>
<path d="M28.953 24.2259C28.0436 24.7509 27.3086 26.024 27.3115 27.069C27.3145 28.1142 28.0542 28.5356 28.9637 28.0106C29.8732 27.4855 30.6081 26.2126 30.6052 25.1674C30.6023 24.1224 29.8625 23.7008 28.953 24.2259Z" fill="#232730"/>
<defs>
<linearGradient id="paint0_linear_3700_14435" x1="20.0001" y1="1.62988e-09" x2="20.085" y2="65.3817" gradientUnits="userSpaceOnUse">
<stop offset="0.281729" stop-color="#F2CF45"/>
<stop offset="0.546875" stop-color="#E8A906"/>
<stop offset="0.8125" stop-color="#DE2316"/>
</linearGradient>
<linearGradient id="paint1_linear_3700_14435" x1="9.05486" y1="18.8187" x2="8.94082" y2="46.5869" gradientUnits="userSpaceOnUse">
<stop stop-color="#F2CF45"/>
<stop offset="0.479167" stop-color="#E8A906"/>
<stop offset="1" stop-color="#DE2316"/>
</linearGradient>
<linearGradient id="paint2_linear_3700_14435" x1="14.7157" y1="17.7012" x2="14.1193" y2="15.7797" gradientUnits="userSpaceOnUse">
<stop stop-color="#DE2316"/>
<stop offset="0.670714" stop-color="#E8A906"/>
<stop offset="1" stop-color="#F2CF45"/>
</linearGradient>
<linearGradient id="paint3_linear_3700_14435" x1="27.6153" y1="10.2967" x2="27.0189" y2="8.37517" gradientUnits="userSpaceOnUse">
<stop stop-color="#DE2316"/>
<stop offset="0.670714" stop-color="#E8A906"/>
<stop offset="1" stop-color="#F2CF45"/>
</linearGradient>
</defs>
</svg>
