<svg width="40" height="40" viewBox="0 0 40 40" fill="none" xmlns="http://www.w3.org/2000/svg">
<g clip-path="url(#clip0_3699_14291)">
<path d="M10.4312 8.49342L25.0291 0.0652989C25.1614 -0.0111073 25.2812 -0.0182167 25.3676 0.0320958L29.9165 2.67733C29.9163 2.67717 29.916 2.6771 29.9156 2.67694C30.0014 2.72631 30.0548 2.83202 30.0552 2.98256V30.6854C30.056 30.9874 29.8439 31.3548 29.581 31.5066L14.9832 39.9347C14.8424 40.016 14.7163 40.0183 14.6289 39.957C14.6341 39.9607 14.6391 39.9647 14.6446 39.968L10.0958 37.3227C10.0104 37.2731 9.95753 37.1676 9.95714 37.0175V9.31467C9.9562 9.01264 10.1683 8.64522 10.4312 8.49342ZM29.8056 2.64569C29.8117 2.646 29.8175 2.64717 29.8235 2.6478C29.8174 2.64717 29.8117 2.64592 29.8056 2.64569ZM29.8817 2.661C29.8871 2.66303 29.8922 2.66592 29.8975 2.66835C29.8922 2.66592 29.8872 2.66311 29.8817 2.661ZM29.8449 2.65053C29.8506 2.6517 29.8561 2.65374 29.8617 2.6553C29.8561 2.65366 29.8507 2.6517 29.8449 2.65053ZM29.7823 2.64616C29.7761 2.64631 29.7701 2.646 29.7638 2.64655C29.7701 2.646 29.776 2.64631 29.7823 2.64616ZM29.7385 2.65053C29.7323 2.65163 29.7262 2.6521 29.7199 2.6535C29.7263 2.65194 29.7322 2.65147 29.7385 2.65053ZM29.693 2.66092C29.6867 2.66272 29.6806 2.66405 29.6742 2.66624C29.6806 2.66405 29.6867 2.66272 29.693 2.66092ZM29.645 2.67795C29.6389 2.68045 29.6328 2.68241 29.6267 2.68538C29.633 2.68241 29.6389 2.68045 29.645 2.67795ZM14.6148 39.9472C14.6095 39.943 14.6047 39.9378 14.5999 39.933C14.6048 39.9378 14.6095 39.943 14.6148 39.9472ZM14.5874 39.921C14.5827 39.9157 14.5786 39.9096 14.5743 39.9038C14.5787 39.9096 14.5828 39.9157 14.5874 39.921ZM14.5085 39.7171C14.5068 39.6997 14.506 39.6815 14.5059 39.6628C14.5059 39.6815 14.5068 39.6997 14.5085 39.7171ZM14.5636 39.8897C14.5595 39.8832 14.556 39.8761 14.5522 39.8691C14.556 39.876 14.5595 39.8833 14.5636 39.8897ZM14.5436 39.8535C14.5401 39.8461 14.5374 39.8378 14.5343 39.8298C14.5374 39.8378 14.5401 39.8461 14.5436 39.8535ZM14.5275 39.8126C14.5247 39.804 14.5228 39.7947 14.5206 39.7857C14.5228 39.7948 14.5249 39.8041 14.5275 39.8126ZM14.5158 39.767C14.5138 39.7569 14.5125 39.7459 14.5111 39.7353C14.5125 39.7461 14.5138 39.7569 14.5158 39.767Z" fill="#232730"/>
<path d="M14.5059 11.9599V39.6627C14.5063 39.8128 14.5591 39.9183 14.6445 39.9679L10.0957 37.3227C10.0103 37.2731 9.95742 37.1676 9.95703 37.0175V9.31467L14.5059 11.9599Z" fill="#232730"/>
<path d="M25.0291 0.0652989C25.1614 -0.0111073 25.2812 -0.0182167 25.3676 0.0320958L29.9165 2.67733C29.83 2.62702 29.7103 2.6342 29.578 2.71053L14.9801 11.1387L10.4313 8.49342L25.0291 0.0652989Z" fill="#232730"/>
<path d="M14.9797 11.1388L10.4309 8.49353C10.168 8.64525 9.95591 9.01267 9.95677 9.31478L14.5056 11.96C14.5048 11.6579 14.7169 11.2906 14.9797 11.1388Z" fill="#232730"/>
<path d="M14.9798 11.1387C14.7169 11.2905 14.5048 11.6579 14.5056 11.96V39.6628C14.5064 39.9648 14.72 40.0866 14.9828 39.9348L29.5808 31.5067C29.8437 31.355 30.0558 30.9876 30.0549 30.6855V2.98258C30.0541 2.68054 29.8406 2.55883 29.5777 2.71054L14.9798 11.1387Z" fill="url(#paint0_linear_3699_14291)"/>
<path d="M16.0835 14.1795L28.4946 7.01398L28.4753 28.4659L16.0642 35.6314L16.0835 14.1795Z" fill="#232730"/>
<path d="M22.272 32.7423C22.8365 32.4164 23.2958 32.678 23.2976 33.3268C23.2994 33.9755 22.8432 34.7658 22.2786 35.0917C21.7141 35.4176 21.2548 35.1559 21.253 34.5072C21.2511 33.8585 21.7074 33.0683 22.272 32.7423Z" fill="#232730"/>
<path d="M19.7158 10.1284L24.8515 7.16343C24.9696 7.09531 25.0656 7.14999 25.0659 7.28562C25.0662 7.42132 24.971 7.58687 24.8529 7.65507L19.7172 10.6201C19.5991 10.6882 19.5029 10.6334 19.5025 10.4977C19.5021 10.3621 19.5977 10.1966 19.7158 10.1284Z" fill="#232730"/>
</g>
<defs>
<linearGradient id="paint0_linear_3699_14291" x1="22.2803" y1="2.64526" x2="22.403" y2="63.7033" gradientUnits="userSpaceOnUse">
<stop offset="0.281729" stop-color="#F2CF45"/>
<stop offset="0.546875" stop-color="#E8A906"/>
<stop offset="0.8125" stop-color="#DE2316"/>
</linearGradient>
<clipPath id="clip0_3699_14291">
<rect width="40" height="40" fill="white" transform="matrix(-1 0 0 1 40 0)"/>
</clipPath>
</defs>
</svg>
